<svg width="93" height="73" viewBox="0 0 93 73" fill="none" xmlns="http://www.w3.org/2000/svg">
<g clip-path="url(#clip0_99_1992)">
<rect x="0.703857" y="27.3616" width="80" height="48" rx="2" transform="rotate(-20 0.703857 27.3616)" fill="#8080DC"/>
<path d="M14.394 42.8642L17.2009 43.9975L19.1633 49.389L16.7474 49.3301L14.394 42.8642Z" fill="#FDFDFD"/>
<path d="M17.3067 43.959L14.4998 42.8257L19.6799 40.9403L20.3725 42.8432L17.3067 43.959Z" fill="#FDFDFD"/>
<path d="M11.9153 45.9213L11.2227 44.0185L14.2884 42.9026L14.981 44.8055L11.9153 45.9213Z" fill="#FDFDFD"/>
<path d="M74.684 2.56343L3.26733 28.557L44.3522 29.566L74.684 2.56343Z" fill="#AAAAE8"/>
<rect x="13.8699" y="57.6874" width="21" height="2" rx="1" transform="rotate(-20 13.8699 57.6874)" fill="#5555D0"/>
<rect x="15.238" y="61.4462" width="17" height="2" rx="1" transform="rotate(-20 15.238 61.4462)" fill="#5555D0"/>
<rect x="16.606" y="65.205" width="17" height="2" rx="1" transform="rotate(-20 16.606 65.205)" fill="#5555D0"/>
</g>
<defs>
<clipPath id="clip0_99_1992">
<rect x="0.703857" y="27.3616" width="80" height="48" rx="2" transform="rotate(-20 0.703857 27.3616)" fill="white"/>
</clipPath>
</defs>
</svg>
